<?xml version="1.0" encoding="utf-8"?>
<!-- Generator: Adobe Illustrator 24.2.0, SVG Export Plug-In . SVG Version: 6.00 Build 0)  -->
<svg version="1.1" id="Camada_1" xmlns="http://www.w3.org/2000/svg" xmlns:xlink="http://www.w3.org/1999/xlink" x="0px" y="0px"
	 viewBox="0 0 900 414" style="enable-background:new 0 0 900 414;" xml:space="preserve">
<style type="text/css">
	.st0{fill:#C3B6D3;}
	.st1{fill:#FFFFFF;}
</style>
<g>
	<polygon class="st0" points="9,387 9,396 18,396 18,405 27,405 27,414 873,414 873,405 882,405 882,396 891,396 891,387 900,387 
		900,54 891,54 891,45 882,45 882,36 873,36 873,27 27,27 27,36 18,36 18,45 9,45 9,54 0,54 0,387 	"/>
	<polygon class="st1" points="9,360 9,369 18,369 18,378 27,378 27,387 873,387 873,378 882,378 882,369 891,369 891,360 900,360 
		900,27 891,27 891,18 882,18 882,9 873,9 873,0 27,0 27,9 18,9 18,18 9,18 9,27 0,27 0,360 	"/>
</g>
</svg>
