<?xml version="1.0" encoding="utf-8"?>
<!-- Generator: Adobe Illustrator 24.2.0, SVG Export Plug-In . SVG Version: 6.00 Build 0)  -->
<svg version="1.1" id="Camada_1" xmlns="http://www.w3.org/2000/svg" xmlns:xlink="http://www.w3.org/1999/xlink" x="0px" y="0px"
	 viewBox="0 0 72.5 207" style="enable-background:new 0 0 72.5 207;" xml:space="preserve">
<style type="text/css">
	.st0{fill:#DD108F;}
	.st1{fill:#E7DFEF;}
</style>
<g>
	<path class="st0" d="M63,36c0,17.5,0,36.5,0,54h-9v9h-9v-9c-4.5,0-13.5,0-18,0v9h-9v-9H9c0-17.5,0-36.5,0-54H0
		c0,53.8,0,108.2,0,162h9v9c17.5,0,36.5,0,54,0v-9h9c0-53.8,0-108.2,0-162H63z"/>
	<path class="st1" d="M54,45c-14.4,0-30.6,0-45,0c0,14.4,0,30.6,0,45h9v9c11.3,0,24.7,0,36,0v-9h9c0-14.4,0-30.6,0-45H54z"/>
	<g>
		<g>
			<path d="M29.8,180.1v-2.5h2.1v-12.9h-2.1v-2.4h13.9v5.1h-2.4l-0.1-2.7h-6.7v5h7.1v2.5h-7.1v5.4H37v2.5H29.8z"/>
		</g>
	</g>
</g>
</svg>
