<?xml version="1.0" encoding="utf-8"?>
<!-- Generator: Adobe Illustrator 24.2.0, SVG Export Plug-In . SVG Version: 6.00 Build 0)  -->
<svg version="1.1" id="Camada_1" xmlns="http://www.w3.org/2000/svg" xmlns:xlink="http://www.w3.org/1999/xlink" x="0px" y="0px"
	 viewBox="0 0 72.5 207" style="enable-background:new 0 0 72.5 207;" xml:space="preserve">
<style type="text/css">
	.st0{fill:#EB3929;}
	.st1{fill:#E7DFEF;}
</style>
<g>
	<path class="st0" d="M63,27c0,17.5,0,36.5,0,54h-9v9h-9v-9c-4.5,0-13.5,0-18,0v9h-9v-9H9c0-17.5,0-36.5,0-54H0
		c0,56.9,0,114.1,0,171h9v9c17.5,0,36.5,0,54,0v-9h9c0-56.9,0-114.1,0-171H63z"/>
	<g>
		<path d="M30.2,180.1v-2.5h2.1v-12.9h-2.1v-2.4h9.6c5.1-0.8,8.7,6,3.5,8.6c6.1,2.6,2.1,10.3-3.5,9.1
			C39.8,180.1,30.2,180.1,30.2,180.1z M34.9,169.8c2.1-0.1,8.4,0.8,8.3-2.3c0.2-3.9-5.9-2.4-8.3-2.7V169.8z M34.9,177.7
			c2.6-0.4,8.4,1.4,8.7-2.7c-0.3-3.9-6.2-2.6-8.7-2.8V177.7z"/>
	</g>
	<path class="st1" d="M54,36c-14.4,0-30.6,0-45,0c0,14.4,0,30.6,0,45h9v9c11.3,0,24.7,0,36,0v-9h9c0-14.4,0-30.6,0-45H54z"/>
</g>
</svg>
