<?xml version="1.0" encoding="utf-8"?>
<!-- Generator: Adobe Illustrator 24.2.0, SVG Export Plug-In . SVG Version: 6.00 Build 0)  -->
<svg version="1.1" id="Camada_1" xmlns="http://www.w3.org/2000/svg" xmlns:xlink="http://www.w3.org/1999/xlink" x="0px" y="0px"
	 viewBox="0 0 72.5 207" style="enable-background:new 0 0 72.5 207;" xml:space="preserve">
<style type="text/css">
	.st0{fill:#AF42F6;}
	.st1{fill:#E7DFEF;}
</style>
<g>
	<path class="st0" d="M63,0c0,8,0,19,0,27h-9v9h-9v-9c-4.5,0-13.5,0-18,0v9h-9v-9H9C9,19,9,8,9,0H0c0,65.9,0,132.1,0,198h9v9
		c17.5,0,36.5,0,54,0v-9h9c0-65.9,0-132.1,0-198H63z"/>
	<g>
		<path d="M27.6,180.1v-2.5h2.1v-12.9h-2.1v-2.4c7.2-0.3,17.7-0.9,17.3,8.7C45.4,180.8,35.1,180.5,27.6,180.1z M36,177.7
			c9.3-0.6,8.6-15.1-3.6-12.9v12.9H36z"/>
	</g>
	<path class="st1" d="M54,0C39.6,0,23.4,0,9,0c0,8,0,19,0,27h9v9c11.3,0,24.7,0,36,0v-9h9c0-8,0-19,0-27H54z"/>
</g>
</svg>
