<?xml version="1.0" encoding="utf-8"?>
<!-- Generator: Adobe Illustrator 24.2.0, SVG Export Plug-In . SVG Version: 6.00 Build 0)  -->
<svg version="1.1" id="Camada_1" xmlns="http://www.w3.org/2000/svg" xmlns:xlink="http://www.w3.org/1999/xlink" x="0px" y="0px"
	 viewBox="0 0 1170 719" style="enable-background:new 0 0 1170 719;" xml:space="preserve">
<style type="text/css">
	.st0{fill:#695433;}
	.st1{fill:#362A15;}
	.st2{fill:#8E6835;}
	.st3{fill:#B78A4E;}
	.st4{fill:#633585;}
</style>
<g>
	<g>
		
			<rect x="427.5" y="-77.5" transform="matrix(-1.836970e-16 1 -1 -1.836970e-16 795.5 -140.5)" class="st0" width="81" height="810"/>
		<rect x="396" y="-190" transform="matrix(6.123234e-17 -1 1 6.123234e-17 253 683)" class="st1" width="144" height="810"/>
		
			<rect x="427.5" y="210.5" transform="matrix(-1.836970e-16 1 -1 -1.836970e-16 1083.5 147.5)" class="st0" width="81" height="810"/>
		<rect x="396" y="98" transform="matrix(6.123234e-17 -1 1 6.123234e-17 -35 971)" class="st1" width="144" height="810"/>
		<polygon class="st2" points="927,0 9,0 9,9 0,9 0,96 936,96 936,9 927,9 		"/>
		<path class="st3" d="M927,95v-9H9v9H0v48v225v63v225v54h9v9h54h810h54v-9h9v-54V143V95H927z M873,647h-9v9H72v-9h-9V440h9v-9h792
			v9h9V647z M873,359h-9v9H72v-9h-9V152h9v-9h792v9h9V359z"/>
		<g>
			<rect x="18" y="214" class="st0" width="9" height="9"/>
			<rect x="18" y="223" class="st0" width="9" height="9"/>
			<rect x="18" y="232" class="st0" width="9" height="9"/>
			<rect x="18" y="241" class="st0" width="9" height="9"/>
			<rect x="27" y="223" class="st0" width="9" height="9"/>
			<rect x="27" y="232" class="st0" width="9" height="9"/>
			<rect x="27" y="241" class="st0" width="9" height="9"/>
			<rect x="36" y="232" class="st0" width="9" height="9"/>
			<rect x="18" y="250" class="st0" width="9" height="9"/>
		</g>
		<g>
			<rect x="36" y="566" transform="matrix(-1 -1.224647e-16 1.224647e-16 -1 81 1141)" class="st0" width="9" height="9"/>
			<rect x="36" y="557" transform="matrix(-1 -1.224647e-16 1.224647e-16 -1 81 1123)" class="st0" width="9" height="9"/>
			<rect x="36" y="548" transform="matrix(-1 -1.224647e-16 1.224647e-16 -1 81 1105)" class="st0" width="9" height="9"/>
			<rect x="36" y="539" transform="matrix(-1 -1.224647e-16 1.224647e-16 -1 81 1087)" class="st0" width="9" height="9"/>
			<rect x="27" y="557" transform="matrix(-1 -1.224647e-16 1.224647e-16 -1 63 1123)" class="st0" width="9" height="9"/>
			<rect x="27" y="548" transform="matrix(-1 -1.224647e-16 1.224647e-16 -1 63 1105)" class="st0" width="9" height="9"/>
			<rect x="27" y="539" transform="matrix(-1 -1.224647e-16 1.224647e-16 -1 63 1087)" class="st0" width="9" height="9"/>
			<rect x="18" y="548" transform="matrix(-1 -1.224647e-16 1.224647e-16 -1 45 1105)" class="st0" width="9" height="9"/>
			<rect x="36" y="530" transform="matrix(-1 -1.224647e-16 1.224647e-16 -1 81 1069)" class="st0" width="9" height="9"/>
		</g>
		<g>
			<rect x="891" y="214" class="st0" width="9" height="9"/>
			<rect x="891" y="223" class="st0" width="9" height="9"/>
			<rect x="891" y="232" class="st0" width="9" height="9"/>
			<rect x="891" y="241" class="st0" width="9" height="9"/>
			<rect x="900" y="223" class="st0" width="9" height="9"/>
			<rect x="900" y="232" class="st0" width="9" height="9"/>
			<rect x="900" y="241" class="st0" width="9" height="9"/>
			<rect x="909" y="232" class="st0" width="9" height="9"/>
			<rect x="891" y="250" class="st0" width="9" height="9"/>
		</g>
		<g>
			<rect x="909" y="566" transform="matrix(-1 -1.224647e-16 1.224647e-16 -1 1827 1141)" class="st0" width="9" height="9"/>
			<rect x="909" y="557" transform="matrix(-1 -1.224647e-16 1.224647e-16 -1 1827 1123)" class="st0" width="9" height="9"/>
			<rect x="909" y="548" transform="matrix(-1 -1.224647e-16 1.224647e-16 -1 1827 1105)" class="st0" width="9" height="9"/>
			<rect x="909" y="539" transform="matrix(-1 -1.224647e-16 1.224647e-16 -1 1827 1087)" class="st0" width="9" height="9"/>
			<rect x="900" y="557" transform="matrix(-1 -1.224647e-16 1.224647e-16 -1 1809 1123)" class="st0" width="9" height="9"/>
			<rect x="900" y="548" transform="matrix(-1 -1.224647e-16 1.224647e-16 -1 1809 1105)" class="st0" width="9" height="9"/>
			<rect x="900" y="539" transform="matrix(-1 -1.224647e-16 1.224647e-16 -1 1809 1087)" class="st0" width="9" height="9"/>
			<rect x="891" y="548" transform="matrix(-1 -1.224647e-16 1.224647e-16 -1 1791 1105)" class="st0" width="9" height="9"/>
			<rect x="909" y="530" transform="matrix(-1 -1.224647e-16 1.224647e-16 -1 1827 1069)" class="st0" width="9" height="9"/>
		</g>
	</g>
	<polygon class="st4" points="1161,476 1134,476 1125,476 936,476 936,485 936,674 936,683 936,692 936,701 936,710 945,710 
		945,701 954,701 954,692 963,692 963,683 972,683 972,674 981,674 981,665 990,665 990,656 999,656 999,647 1008,647 1008,638 
		1017,638 1017,629 1026,629 1026,620 1035,620 1035,611 1044,611 1044,602 1053,602 1053,593 1062,593 1062,584 1071,584 1071,575 
		1080,575 1080,566 1089,566 1089,557 1098,557 1098,548 1107,548 1107,539 1116,539 1116,530 1125,530 1125,521 1134,521 1134,512 
		1143,512 1143,503 1152,503 1152,494 1161,494 1161,485 1170,485 1170,476 	"/>
</g>
</svg>
