<?xml version="1.0" encoding="utf-8"?>
<!-- Generator: Adobe Illustrator 24.2.0, SVG Export Plug-In . SVG Version: 6.00 Build 0)  -->
<svg version="1.1" id="Camada_1" xmlns="http://www.w3.org/2000/svg" xmlns:xlink="http://www.w3.org/1999/xlink" x="0px" y="0px"
	 viewBox="0 0 72.5 207" style="enable-background:new 0 0 72.5 207;" xml:space="preserve">
<style type="text/css">
	.st0{fill:#E7DFEF;}
	.st1{fill:#F460D4;}
</style>
<g>
	<path class="st0" d="M54,45c-14.4,0-30.6,0-45,0c0,17.5,0,36.5,0,54h9v9c11.3,0,24.7,0,36,0v-9h9c0-17.5,0-36.5,0-54H54z"/>
	<path class="st1" d="M63,36c0,20.6,0,42.4,0,63h-9v9c-11.3,0-24.7,0-36,0v-9H9c0-20.6,0-42.4,0-63H0c0,53.8,0,108.2,0,162h9v9
		c17.5,0,36.5,0,54,0v-9h9c0-53.8,0-108.2,0-162H63z"/>
	<g>
		<path d="M43.7,164.1c0,1.2,0,2.5-0.1,3.8h-2.4l-0.1-2.6c-14.5-5.8-12.9,19.2,0.5,11v-3.3h-5.3v-2.3H44v6.5c-5.1,6.7-17,1.6-15.9-6
			C27.5,163.6,37.5,159.1,43.7,164.1z"/>
	</g>
</g>
</svg>
