<?xml version="1.0" encoding="utf-8"?>
<!-- Generator: Adobe Illustrator 24.2.0, SVG Export Plug-In . SVG Version: 6.00 Build 0)  -->
<svg version="1.1" id="Camada_1" xmlns="http://www.w3.org/2000/svg" xmlns:xlink="http://www.w3.org/1999/xlink" x="0px" y="0px"
	 viewBox="0 0 72.5 207" style="enable-background:new 0 0 72.5 207;" xml:space="preserve">
<style type="text/css">
	.st0{fill:#F69340;}
	.st1{fill:#E7DFEF;}
</style>
<g>
	<g>
		<path class="st0" d="M63,0c0,14.4,0,30.6,0,45h-9v9h-9v-9c-4.5,0-13.5,0-18,0v9h-9v-9H9C9,30.6,9,14.4,9,0H0c0,65.9,0,132.1,0,198
			h9v9c17.5,0,36.5,0,54,0v-9h9c0-65.9,0-132.1,0-198H63z"/>
		<path class="st1" d="M54,0C39.6,0,23.4,0,9,0c0,14.4,0,30.6,0,45h9v9c11.3,0,24.7,0,36,0v-9h9c0-14.4,0-30.6,0-45H54z"/>
	</g>
	<g>
		<path d="M43.6,164.1c0,1.3-0.1,2.6-0.1,3.8h-2.4l-0.1-2.6c-14.8-5.2-11.3,19.8,1.5,10.7l1.9,1.8C24.5,190.7,22.8,153.2,43.6,164.1
			z"/>
	</g>
</g>
</svg>
