<?xml version="1.0" encoding="utf-8"?>
<!-- Generator: Adobe Illustrator 24.2.0, SVG Export Plug-In . SVG Version: 6.00 Build 0)  -->
<svg version="1.1" id="Camada_1" xmlns="http://www.w3.org/2000/svg" xmlns:xlink="http://www.w3.org/1999/xlink" x="0px" y="0px"
	 viewBox="0 0 72.5 207" style="enable-background:new 0 0 72.5 207;" xml:space="preserve">
<style type="text/css">
	.st0{fill:#4041F6;}
	.st1{fill:#E7DFEF;}
</style>
<g>
	<path class="st0" d="M63,0c0,17.5,0,36.5,0,54h-9v9h-9v-9c-4.5,0-13.5,0-18,0v9h-9v-9H9C9,36.5,9,17.5,9,0H0c0,65.9,0,132.1,0,198
		h9v9c17.5,0,36.5,0,54,0v-9h9c0-65.9,0-132.1,0-198H63z"/>
	<g>
		<path d="M45.6,177.7v2.5h-6.8v-2.5h2v-5.5h-9.2v5.5h2v2.5h-6.8v-2.5H29v-12.8h-2.1v-2.5h6.8v2.5h-2v5h9.2v-5h-2v-2.5h6.8v2.5h-2.1
			v12.8H45.6z"/>
	</g>
	<path class="st1" d="M54,0C39.6,0,23.4,0,9,0c0,17.5,0,36.5,0,54h9v9c11.3,0,24.7,0,36,0v-9h9c0-17.5,0-36.5,0-54H54z"/>
</g>
</svg>
