<?xml version="1.0" encoding="utf-8"?>
<!-- Generator: Adobe Illustrator 24.2.0, SVG Export Plug-In . SVG Version: 6.00 Build 0)  -->
<svg version="1.1" id="Camada_1" xmlns="http://www.w3.org/2000/svg" xmlns:xlink="http://www.w3.org/1999/xlink" x="0px" y="0px"
	 viewBox="0 0 72.5 207" style="enable-background:new 0 0 72.5 207;" xml:space="preserve">
<style type="text/css">
	.st0{fill:#F1F552;}
	.st1{fill:#E7DFEF;}
</style>
<g>
	<path class="st0" d="M63,9c0,17.5,0,36.5,0,54c-17.5,0-36.5,0-54,0C9,45.5,9,26.5,9,9H0c0,62.9,0,126.1,0,189h9v9
		c17.5,0,36.5,0,54,0v-9h9c0-62.9,0-126.1,0-189H63z"/>
	<path class="st1" d="M54,18c-14.4,0-30.6,0-45,0c0,14.4,0,30.6,0,45h9v9c11.3,0,24.7,0,36,0v-9h9c0-14.4,0-30.6,0-45H54z"/>
	<g>
		<path d="M34.2,164.8h-1.9v-2.4h6l6.7,15.3h1.6v2.5h-6.6v-2.5h2.1c-0.5-0.9-0.8-1.9-1.1-2.6h-8.8c-0.3,0.7-0.8,1.7-1.2,2.6h2.1v2.5
			h-6.6v-2.5h1.6L34.2,164.8z M40,172.7c-0.9-2.1-1.8-4.3-3.2-7.7c-1.5,3.5-2.6,5.6-3.5,7.7H40z"/>
	</g>
</g>
</svg>
