<?xml version="1.0" encoding="utf-8"?>
<!-- Generator: Adobe Illustrator 24.2.0, SVG Export Plug-In . SVG Version: 6.00 Build 0)  -->
<svg version="1.1" id="Camada_1" xmlns="http://www.w3.org/2000/svg" xmlns:xlink="http://www.w3.org/1999/xlink" x="0px" y="0px"
	 viewBox="0 0 72.5 207" style="enable-background:new 0 0 72.5 207;" xml:space="preserve">
<style type="text/css">
	.st0{fill:#38E655;}
	.st1{fill:#E7DFEF;}
</style>
<g>
	<g>
		<path class="st0" d="M63.5,18c0,17.5,0,36.5,0,54h-9v9c-11.3,0-24.7,0-36,0v-9h-9c0-17.5,0-36.5,0-54h-9c0,59.9,0,120.1,0,180h9v9
			c17.5,0,36.5,0,54,0v-9h9c0-59.9,0-120.1,0-180H63.5z"/>
		<path class="st1" d="M54.5,27c-14.4,0-30.6,0-45,0c0,14.4,0,30.6,0,45h9v9c11.3,0,24.7,0,36,0v-9h9c0-14.4,0-30.6,0-45H54.5z"/>
	</g>
	<g>
		<path d="M40.3,177.7v2.5h-7.1v-2.5h2.2v-12.8h-2.1v-2.5h7v2.5H38v12.8H40.3z"/>
	</g>
</g>
</svg>
