<?xml version="1.0" encoding="utf-8"?>
<!-- Generator: Adobe Illustrator 24.2.0, SVG Export Plug-In . SVG Version: 6.00 Build 0)  -->
<svg version="1.1" id="Camada_1" xmlns="http://www.w3.org/2000/svg" xmlns:xlink="http://www.w3.org/1999/xlink" x="0px" y="0px"
	 viewBox="0 0 72.5 207" style="enable-background:new 0 0 72.5 207;" xml:space="preserve">
<style type="text/css">
	.st0{fill:#E7DFEF;}
	.st1{fill:#40A7F6;}
</style>
<g>
	<path class="st0" d="M54,63c-14.4,0-30.6,0-45,0c0,13.8,0,31.3,0,45h9v9c11.3,0,24.7,0,36,0v-9h9c0-13.7,0-31.2,0-45H54z"/>
	<path class="st1" d="M63,54c0,17.5,0,36.4,0,54h-9v9c-11.3,0-24.7,0-36,0v-9H9c0-17.5,0-36.4,0-54H0c0,47.8,0,96.1,0,144h9v9
		c17.5,0,36.5,0,54,0v-9h9c0-47.8,0-96.1,0-144H63z"/>
	<g>
		<path d="M41.3,177.6l0.1-2.7h2.4v5.2h-15v-2.5h2.1v-12.9h-2.1v-2.4h14.6v5.1H41l-0.1-2.7h-7.4v5h7.5v2.5h-7.5v5.3H41.3z"/>
	</g>
</g>
</svg>
