<?xml version="1.0" encoding="utf-8"?>
<!-- Generator: Adobe Illustrator 24.2.0, SVG Export Plug-In . SVG Version: 6.00 Build 0)  -->
<svg version="1.1" id="Camada_1" xmlns="http://www.w3.org/2000/svg" xmlns:xlink="http://www.w3.org/1999/xlink" x="0px" y="0px"
	 viewBox="0 0 360 87" style="enable-background:new 0 0 360 87;" xml:space="preserve">
<style type="text/css">
	.st0{fill:#1BC133;}
	.st1{fill:#38E655;}
	.st2{fill:#353535;}
</style>
<g>
	<g>
		<polygon class="st0" points="351,18 351,9 261,9 87,9 9,9 9,18 0,18 0,78 9,78 9,87 87,87 261,87 351,87 351,78 360,78 360,18 		
			"/>
		<polygon class="st1" points="351,9 351,0 261,0 87,0 9,0 9,9 0,9 0,69 9,69 9,78 87,78 261,78 351,78 351,69 360,69 360,9 		"/>
	</g>
	<g>
		<g>
			<path class="st2" d="M86.8,39.3c0,4.6-2.9,9.2-9,9.2c-6.2,0-9.1-4.5-9.1-9.2c0-5.4,3.7-9.3,9.1-9.3
				C83.8,30.1,86.8,34.6,86.8,39.3z M77.8,32.5c-4.2,0-6.4,3.1-6.4,6.9c0,3.4,2,6.7,6.4,6.7c4.5,0,6.3-3.4,6.3-6.7
				C84.2,36,82.2,32.5,77.8,32.5z"/>
			<path class="st2" d="M107.5,41.4h-3.1v4.3h2.3v2.5h-7v-2.5h2.1V32.8h-2.1v-2.4h10c3.3,0,6.1,1.5,6.2,5.4c0,3.5-2.1,5.2-5.4,5.6
				l3.9,4.3h2.1v2.5h-5.2v-2.2L107.5,41.4z M109.6,39.1c2.5,0,3.5-1.4,3.6-3.3c0-2.1-1.5-3-3.5-3h-5.2v6.3H109.6z"/>
			<path class="st2" d="M144.8,32.1c0,1.2,0,2.5-0.1,3.8h-2.4l-0.1-2.6c-1.1-0.5-2.6-0.8-3.8-0.8c-4.2,0-6.6,3.2-6.6,6.9
				c0,3.3,2,6.5,6.7,6.5c1.8,0,2.8-0.4,4.2-1.6v-3.3h-5.3v-2.3h7.6v6.5c-1.6,2.1-3.8,3.1-6.6,3.1c-6.5,0-9.3-4.3-9.3-9.1
				c0-5.2,3.3-9.4,9.3-9.4C140.9,30.1,143,30.6,144.8,32.1z"/>
			<path class="st2" d="M164.9,32.8h-1.9v-2.4h6l6.7,15.3h1.6v2.5h-6.6v-2.5h2.1c-0.5-0.9-0.8-1.9-1.1-2.6h-8.8
				c-0.3,0.7-0.8,1.7-1.2,2.6h2.1v2.5h-6.6v-2.5h1.6L164.9,32.8z M170.8,40.7c-0.9-2.1-1.8-4.3-3.2-7.7c-1.5,3.5-2.6,5.6-3.5,7.7
				H170.8z"/>
			<path class="st2" d="M189.7,48.1v-2.4h2V32.8h-2.1v-2.5h4.1l10.4,12.8V32.8H202v-2.5h6.8v2.5h-2v15.3h-1.8l-10.6-12.8v10.4h2.1
				v2.4H189.7z"/>
			<path class="st2" d="M229,45.7v2.5h-7.1v-2.5h2.2V32.8h-2.1v-2.5h7v2.5h-2.2v12.8H229z"/>
			<path class="st2" d="M245,35.4h-2.5v-5h12.6v1.2l-9.4,14.1h7.3l0.1-2.9h2.4v5.5h-13.6v-1.4l9.2-13.8H245L245,35.4z"/>
			<path class="st2" d="M281.2,45.6l0.1-2.7h2.4v5.2h-15v-2.5h2.1V32.8h-2.1v-2.4h14.6v5.1h-2.4l-0.1-2.7h-7.4v5h7.5v2.5h-7.5v5.3
				H281.2z"/>
		</g>
	</g>
</g>
</svg>
