<?xml version="1.0" encoding="utf-8"?>
<!-- Generator: Adobe Illustrator 24.2.0, SVG Export Plug-In . SVG Version: 6.00 Build 0)  -->
<svg version="1.1" id="Camada_1" xmlns="http://www.w3.org/2000/svg" xmlns:xlink="http://www.w3.org/1999/xlink" x="0px" y="0px"
	 viewBox="0 0 257.6 273.7" style="enable-background:new 0 0 257.6 273.7;" xml:space="preserve">
<style type="text/css">
	.st0{fill:#E7DFEF;}
	.st1{fill:#FFFFFF;}
</style>
<g>
	<polygon class="st0" points="250.8,117.3 250.8,117.3 250.8,110.5 250.8,103.6 250.8,96.8 243.9,96.8 243.9,96.8 243.9,89.9 
		243.9,83 237.1,83 237,83 237,76.2 237,69.3 231,69.3 231,65.4 231,58.4 224,58.4 224,58.3 224,51.3 216.9,51.3 216.9,51.3 
		216.9,44.3 210.7,44.3 209.9,44.3 209.9,44.2 209.9,37.2 202.8,37.2 202.8,37.2 202.8,30.2 195.8,30.2 188.7,30.2 188.7,30.1 
		188.7,23.1 181.7,23.1 174.6,23.1 174.6,23 174.6,16 167.6,16 160.5,16 153.5,16 153.5,16 153.5,9 146.4,9 139.4,9 132.3,9 
		125.3,9 118.2,9 111.2,9 104.1,9 104.1,16 104.1,16 97.1,16 90,16 83,16 83,23 83,23.1 75.9,23.1 68.9,23.1 68.9,30.1 68.9,30.2 
		61.8,30.2 54.8,30.2 54.8,37.2 54.8,37.2 47.7,37.2 47.7,44.2 47.7,44.3 40.7,44.3 40.7,51.3 40.7,51.3 33.6,51.3 33.6,58.3 
		33.6,58.4 26.6,58.4 26.6,65.4 26.6,69.3 20.6,69.3 20.6,76.2 20.6,83 20.5,83 13.7,83 13.7,89.9 13.7,96.8 13.7,96.8 6.9,96.8 
		6.9,103.6 6.9,110.5 6.9,117.3 6.8,117.3 0,117.3 0,124.2 0,131.1 0,137.9 0,144.8 0,151.6 0,158.5 0,165.4 6.8,165.4 6.9,165.4 
		6.9,172.2 6.9,179.1 6.9,185.9 13.7,185.9 13.7,185.9 13.7,192.8 13.7,199.7 20.5,199.7 20.6,199.7 20.6,206.5 20.6,213.4 
		26.6,213.4 26.6,217.4 26.6,224.4 33.6,224.4 33.6,224.4 33.6,231.4 40.7,231.4 40.7,231.5 40.7,238.5 47.7,238.5 47.7,238.5 
		47.7,245.5 54.8,245.5 54.8,245.5 54.8,252.5 61.8,252.5 68.9,252.5 68.9,252.6 68.9,259.6 75.9,259.6 83,259.6 83,259.7 83,266.7 
		90,266.7 97.1,266.7 104.1,266.7 104.1,266.7 104.1,273.7 111.2,273.7 118.2,273.7 125.3,273.7 132.3,273.7 139.4,273.7 
		146.4,273.7 153.5,273.7 153.5,266.7 153.5,266.7 160.5,266.7 167.6,266.7 174.6,266.7 174.6,259.7 174.6,259.6 181.7,259.6 
		188.7,259.6 188.7,252.6 188.7,252.5 195.8,252.5 202.8,252.5 202.8,245.5 202.8,245.5 209.9,245.5 209.9,238.5 209.9,238.5 
		210.7,238.5 216.9,238.5 216.9,231.5 216.9,231.4 224,231.4 224,224.4 224,224.4 231,224.4 231,217.4 231,213.4 237,213.4 
		237,206.5 237,199.7 237.1,199.7 243.9,199.7 243.9,192.8 243.9,185.9 243.9,185.9 250.8,185.9 250.8,179.1 250.8,172.2 
		250.8,165.4 250.8,165.4 257.6,165.4 257.6,158.5 257.6,151.6 257.6,144.8 257.6,137.9 257.6,131.1 257.6,124.2 257.6,117.3 	"/>
	<polygon class="st1" points="250.8,108.3 250.8,108.3 250.8,101.5 250.8,94.6 250.8,87.8 243.9,87.8 243.9,87.8 243.9,80.9 
		243.9,74 237.1,74 237,74 237,67.2 237,60.3 231,60.3 231,56.4 231,49.4 224,49.4 224,49.3 224,42.3 216.9,42.3 216.9,42.3 
		216.9,35.3 210.7,35.3 209.9,35.3 209.9,35.2 209.9,28.2 202.8,28.2 202.8,28.2 202.8,21.2 195.8,21.2 188.7,21.2 188.7,21.1 
		188.7,14.1 181.7,14.1 174.6,14.1 174.6,14 174.6,7 167.6,7 160.5,7 153.5,7 153.5,7 153.5,0 146.4,0 139.4,0 132.3,0 125.3,0 
		118.2,0 111.2,0 104.1,0 104.1,7 104.1,7 97.1,7 90,7 83,7 83,14 83,14.1 75.9,14.1 68.9,14.1 68.9,21.1 68.9,21.2 61.8,21.2 
		54.8,21.2 54.8,28.2 54.8,28.2 47.7,28.2 47.7,35.2 47.7,35.3 40.7,35.3 40.7,42.3 40.7,42.3 33.6,42.3 33.6,49.3 33.6,49.4 
		26.6,49.4 26.6,56.4 26.6,60.3 20.6,60.3 20.6,67.2 20.6,74 20.5,74 13.7,74 13.7,80.9 13.7,87.8 13.7,87.8 6.9,87.8 6.9,94.6 
		6.9,101.5 6.9,108.3 6.8,108.3 0,108.3 0,115.2 0,122.1 0,128.9 0,135.8 0,142.6 0,149.5 0,156.4 6.8,156.4 6.9,156.4 6.9,163.2 
		6.9,170.1 6.9,176.9 13.7,176.9 13.7,176.9 13.7,183.8 13.7,190.7 20.5,190.7 20.6,190.7 20.6,197.5 20.6,204.4 26.6,204.4 
		26.6,208.4 26.6,215.4 33.6,215.4 33.6,215.4 33.6,222.4 40.7,222.4 40.7,222.5 40.7,229.5 47.7,229.5 47.7,229.5 47.7,236.5 
		54.8,236.5 54.8,236.5 54.8,243.5 61.8,243.5 68.9,243.5 68.9,243.6 68.9,250.6 75.9,250.6 83,250.6 83,250.7 83,257.7 90,257.7 
		97.1,257.7 104.1,257.7 104.1,257.7 104.1,264.7 111.2,264.7 118.2,264.7 125.3,264.7 132.3,264.7 139.4,264.7 146.4,264.7 
		153.5,264.7 153.5,257.7 153.5,257.7 160.5,257.7 167.6,257.7 174.6,257.7 174.6,250.7 174.6,250.6 181.7,250.6 188.7,250.6 
		188.7,243.6 188.7,243.5 195.8,243.5 202.8,243.5 202.8,236.5 202.8,236.5 209.9,236.5 209.9,229.5 209.9,229.5 210.7,229.5 
		216.9,229.5 216.9,222.5 216.9,222.4 224,222.4 224,215.4 224,215.4 231,215.4 231,208.4 231,204.4 237,204.4 237,197.5 237,190.7 
		237.1,190.7 243.9,190.7 243.9,183.8 243.9,176.9 243.9,176.9 250.8,176.9 250.8,170.1 250.8,163.2 250.8,156.4 250.8,156.4 
		257.6,156.4 257.6,149.5 257.6,142.6 257.6,135.8 257.6,128.9 257.6,122.1 257.6,115.2 257.6,108.3 	"/>
	<g>
		<g>
			<rect x="111.6" y="7.1" class="st0" width="7" height="7"/>
			<rect x="118.6" y="7.1" class="st0" width="7" height="7"/>
			<rect x="125.6" y="7.1" class="st0" width="7" height="7"/>
			<rect x="132.6" y="7.1" class="st0" width="7" height="7"/>
			<rect x="139.6" y="7.1" class="st0" width="7" height="7"/>
			<rect x="146.6" y="14.1" class="st0" width="7" height="7"/>
			<rect x="153.6" y="14.1" class="st0" width="7" height="7"/>
			<rect x="160.6" y="14.1" class="st0" width="7" height="7"/>
			<rect x="167.6" y="21.1" class="st0" width="7" height="7"/>
			<rect x="174.6" y="21.1" class="st0" width="7" height="7"/>
			<rect x="181.6" y="28.1" class="st0" width="7" height="7"/>
			<rect x="188.6" y="28.1" class="st0" width="7" height="7"/>
			<rect x="195.6" y="35.1" class="st0" width="7" height="7"/>
			<rect x="202.6" y="42.1" class="st0" width="7" height="7"/>
			<rect x="209.6" y="49.1" class="st0" width="7" height="7"/>
			<rect x="216.6" y="56.1" class="st0" width="7" height="7"/>
			<rect x="223.6" y="63.1" class="st0" width="7" height="10"/>
			<rect x="223.6" y="73.1" class="st0" width="7" height="7"/>
			<rect x="230.6" y="80.1" class="st0" width="7" height="7"/>
			<rect x="230.6" y="87.1" class="st0" width="7" height="7"/>
			<rect x="237.6" y="94.1" class="st0" width="7" height="7"/>
			<rect x="237.6" y="101.1" class="st0" width="7" height="7"/>
			<rect x="237.6" y="108.1" class="st0" width="7" height="7"/>
			<rect x="244.6" y="115.1" class="st0" width="7" height="7"/>
			<rect x="244.6" y="122.1" class="st0" width="7" height="7"/>
			<rect x="244.6" y="129.1" class="st0" width="7" height="7"/>
		</g>
		<g>
			
				<rect x="139.6" y="7.1" transform="matrix(-1 -4.482515e-11 4.482515e-11 -1 286.2422 21.1632)" class="st0" width="7" height="7"/>
			
				<rect x="132.6" y="7.1" transform="matrix(-1 -4.495527e-11 4.495527e-11 -1 272.2422 21.1632)" class="st0" width="7" height="7"/>
			
				<rect x="125.6" y="7.1" transform="matrix(-1 -4.482515e-11 4.482515e-11 -1 258.2422 21.1632)" class="st0" width="7" height="7"/>
			
				<rect x="118.6" y="7.1" transform="matrix(-1 -4.495527e-11 4.495527e-11 -1 244.2422 21.1632)" class="st0" width="7" height="7"/>
			
				<rect x="111.6" y="7.1" transform="matrix(-1 -4.495527e-11 4.495527e-11 -1 230.2422 21.1632)" class="st0" width="7" height="7"/>
			
				<rect x="104.6" y="14.1" transform="matrix(-1 -4.482515e-11 4.482515e-11 -1 216.2422 35.1632)" class="st0" width="7" height="7"/>
			
				<rect x="97.6" y="14.1" transform="matrix(-1 -4.495527e-11 4.495527e-11 -1 202.2422 35.1632)" class="st0" width="7" height="7"/>
			
				<rect x="90.6" y="14.1" transform="matrix(-1 -4.495527e-11 4.495527e-11 -1 188.2422 35.1632)" class="st0" width="7" height="7"/>
			
				<rect x="83.6" y="21.1" transform="matrix(-1 -4.482515e-11 4.482515e-11 -1 174.2422 49.1632)" class="st0" width="7" height="7"/>
			
				<rect x="76.6" y="21.1" transform="matrix(-1 -4.482515e-11 4.482515e-11 -1 160.2422 49.1632)" class="st0" width="7" height="7"/>
			
				<rect x="69.6" y="28.1" transform="matrix(-1 -4.495527e-11 4.495527e-11 -1 146.2422 63.1632)" class="st0" width="7" height="7"/>
			
				<rect x="62.6" y="28.1" transform="matrix(-1 -4.469548e-11 4.469548e-11 -1 132.2422 63.1632)" class="st0" width="7" height="7"/>
			
				<rect x="55.6" y="35.1" transform="matrix(-1 -4.508495e-11 4.508495e-11 -1 118.2422 77.1632)" class="st0" width="7" height="7"/>
			
				<rect x="48.6" y="42.1" transform="matrix(-1 -4.482515e-11 4.482515e-11 -1 104.2422 91.1632)" class="st0" width="7" height="7"/>
			
				<rect x="41.6" y="49.1" transform="matrix(-1 -4.495527e-11 4.495527e-11 -1 90.2422 105.1632)" class="st0" width="7" height="7"/>
			
				<rect x="34.6" y="56.1" transform="matrix(-1 -4.495527e-11 4.495527e-11 -1 76.2422 119.1632)" class="st0" width="7" height="7"/>
			
				<rect x="27.6" y="63.1" transform="matrix(-1 -4.482515e-11 4.482515e-11 -1 62.2422 136.1632)" class="st0" width="7" height="10"/>
			
				<rect x="27.6" y="73.1" transform="matrix(-1 -4.482515e-11 4.482515e-11 -1 62.2422 153.1632)" class="st0" width="7" height="7"/>
			
				<rect x="20.6" y="80.1" transform="matrix(-1 -4.469548e-11 4.469548e-11 -1 48.2422 167.1632)" class="st0" width="7" height="7"/>
			
				<rect x="20.6" y="87.1" transform="matrix(-1 -4.469548e-11 4.469548e-11 -1 48.2422 181.1632)" class="st0" width="7" height="7"/>
			
				<rect x="13.6" y="94.1" transform="matrix(-1 -4.495527e-11 4.495527e-11 -1 34.2422 195.1632)" class="st0" width="7" height="7"/>
			
				<rect x="13.6" y="101.1" transform="matrix(-1 -4.495527e-11 4.495527e-11 -1 34.2422 209.1632)" class="st0" width="7" height="7"/>
			
				<rect x="13.6" y="108.1" transform="matrix(-1 -4.495527e-11 4.495527e-11 -1 34.2422 223.1632)" class="st0" width="7" height="7"/>
			
				<rect x="6.6" y="115.1" transform="matrix(-1 -4.495527e-11 4.495527e-11 -1 20.2422 237.1632)" class="st0" width="7" height="7"/>
			
				<rect x="6.6" y="122.1" transform="matrix(-1 -4.495527e-11 4.495527e-11 -1 20.2422 251.1632)" class="st0" width="7" height="7"/>
			
				<rect x="6.6" y="129.1" transform="matrix(-1 -4.495527e-11 4.495527e-11 -1 20.2422 265.1632)" class="st0" width="7" height="7"/>
		</g>
		<g>
			
				<rect x="139.6" y="249.1" transform="matrix(-1 -1.224647e-16 1.224647e-16 -1 286.2422 505.1632)" class="st0" width="7" height="7"/>
			
				<rect x="132.6" y="249.1" transform="matrix(-1 -1.224647e-16 1.224647e-16 -1 272.2422 505.1632)" class="st0" width="7" height="7"/>
			
				<rect x="125.6" y="249.1" transform="matrix(-1 -1.224647e-16 1.224647e-16 -1 258.2422 505.1632)" class="st0" width="7" height="7"/>
			
				<rect x="118.6" y="249.1" transform="matrix(-1 -1.224647e-16 1.224647e-16 -1 244.2422 505.1632)" class="st0" width="7" height="7"/>
			
				<rect x="111.6" y="249.1" transform="matrix(-1 -1.224647e-16 1.224647e-16 -1 230.2422 505.1632)" class="st0" width="7" height="7"/>
			
				<rect x="104.6" y="242.1" transform="matrix(-1 -1.224647e-16 1.224647e-16 -1 216.2422 491.1632)" class="st0" width="7" height="7"/>
			
				<rect x="97.6" y="242.1" transform="matrix(-1 -1.224647e-16 1.224647e-16 -1 202.2422 491.1632)" class="st0" width="7" height="7"/>
			
				<rect x="90.6" y="242.1" transform="matrix(-1 -1.224647e-16 1.224647e-16 -1 188.2422 491.1632)" class="st0" width="7" height="7"/>
			
				<rect x="83.6" y="235.1" transform="matrix(-1 -1.224647e-16 1.224647e-16 -1 174.2422 477.1632)" class="st0" width="7" height="7"/>
			
				<rect x="76.6" y="235.1" transform="matrix(-1 -1.224647e-16 1.224647e-16 -1 160.2422 477.1632)" class="st0" width="7" height="7"/>
			
				<rect x="69.6" y="228.1" transform="matrix(-1 -1.224647e-16 1.224647e-16 -1 146.2422 463.1632)" class="st0" width="7" height="7"/>
			
				<rect x="62.6" y="228.1" transform="matrix(-1 -1.224647e-16 1.224647e-16 -1 132.2422 463.1632)" class="st0" width="7" height="7"/>
			
				<rect x="55.6" y="221.1" transform="matrix(-1 -1.224647e-16 1.224647e-16 -1 118.2422 449.1632)" class="st0" width="7" height="7"/>
			
				<rect x="48.6" y="214.1" transform="matrix(-1 -1.224647e-16 1.224647e-16 -1 104.2422 435.1632)" class="st0" width="7" height="7"/>
			
				<rect x="41.6" y="207.1" transform="matrix(-1 -1.224647e-16 1.224647e-16 -1 90.2422 421.1632)" class="st0" width="7" height="7"/>
			
				<rect x="34.6" y="200.1" transform="matrix(-1 -1.224647e-16 1.224647e-16 -1 76.2422 407.1632)" class="st0" width="7" height="7"/>
			
				<rect x="27.6" y="190.1" transform="matrix(-1 -1.224647e-16 1.224647e-16 -1 62.2422 390.1632)" class="st0" width="7" height="10"/>
			
				<rect x="27.6" y="183.1" transform="matrix(-1 -1.224647e-16 1.224647e-16 -1 62.2422 373.1632)" class="st0" width="7" height="7"/>
			
				<rect x="20.6" y="176.1" transform="matrix(-1 -1.224647e-16 1.224647e-16 -1 48.2422 359.1632)" class="st0" width="7" height="7"/>
			
				<rect x="20.6" y="169.1" transform="matrix(-1 -1.224647e-16 1.224647e-16 -1 48.2422 345.1632)" class="st0" width="7" height="7"/>
			
				<rect x="13.6" y="162.1" transform="matrix(-1 -1.224647e-16 1.224647e-16 -1 34.2422 331.1632)" class="st0" width="7" height="7"/>
			
				<rect x="13.6" y="155.1" transform="matrix(-1 -1.224647e-16 1.224647e-16 -1 34.2422 317.1632)" class="st0" width="7" height="7"/>
			
				<rect x="13.6" y="148.1" transform="matrix(-1 -1.224647e-16 1.224647e-16 -1 34.2422 303.1632)" class="st0" width="7" height="7"/>
			
				<rect x="6.6" y="141.1" transform="matrix(-1 -1.224647e-16 1.224647e-16 -1 20.2422 289.1632)" class="st0" width="7" height="7"/>
			
				<rect x="6.6" y="134.1" transform="matrix(-1 -1.224647e-16 1.224647e-16 -1 20.2422 275.1632)" class="st0" width="7" height="7"/>
			
				<rect x="6.6" y="127.1" transform="matrix(-1 -1.224647e-16 1.224647e-16 -1 20.2422 261.1632)" class="st0" width="7" height="7"/>
		</g>
		<g>
			<rect x="111.6" y="249.1" class="st0" width="7" height="7"/>
			<rect x="118.6" y="249.1" class="st0" width="7" height="7"/>
			<rect x="125.6" y="249.1" class="st0" width="7" height="7"/>
			<rect x="132.6" y="249.1" class="st0" width="7" height="7"/>
			<rect x="139.6" y="249.1" class="st0" width="7" height="7"/>
			<rect x="146.6" y="242.1" class="st0" width="7" height="7"/>
			<rect x="153.6" y="242.1" class="st0" width="7" height="7"/>
			<rect x="160.6" y="242.1" class="st0" width="7" height="7"/>
			<rect x="167.6" y="235.1" class="st0" width="7" height="7"/>
			<rect x="174.6" y="235.1" class="st0" width="7" height="7"/>
			<rect x="181.6" y="228.1" class="st0" width="7" height="7"/>
			<rect x="188.6" y="228.1" class="st0" width="7" height="7"/>
			<rect x="195.6" y="221.1" class="st0" width="7" height="7"/>
			<rect x="202.6" y="214.1" class="st0" width="7" height="7"/>
			<rect x="209.6" y="207.1" class="st0" width="7" height="7"/>
			<rect x="216.6" y="200.1" class="st0" width="7" height="7"/>
			<rect x="223.6" y="190.1" class="st0" width="7" height="10"/>
			<rect x="223.6" y="183.1" class="st0" width="7" height="7"/>
			<rect x="230.6" y="176.1" class="st0" width="7" height="7"/>
			<rect x="230.6" y="169.1" class="st0" width="7" height="7"/>
			<rect x="237.6" y="162.1" class="st0" width="7" height="7"/>
			<rect x="237.6" y="155.1" class="st0" width="7" height="7"/>
			<rect x="237.6" y="148.1" class="st0" width="7" height="7"/>
			<rect x="244.6" y="141.1" class="st0" width="7" height="7"/>
			<rect x="244.6" y="134.1" class="st0" width="7" height="7"/>
			<rect x="244.6" y="127.1" class="st0" width="7" height="7"/>
		</g>
	</g>
</g>
</svg>
