<?xml version="1.0" encoding="utf-8"?>
<!-- Generator: Adobe Illustrator 24.2.0, SVG Export Plug-In . SVG Version: 6.00 Build 0)  -->
<svg version="1.1" id="Camada_1" xmlns="http://www.w3.org/2000/svg" xmlns:xlink="http://www.w3.org/1999/xlink" x="0px" y="0px"
	 viewBox="0 0 96 105" style="enable-background:new 0 0 96 105;" xml:space="preserve">
<style type="text/css">
	.st0{fill:#C3B6D3;}
	.st1{fill:#E7DFEF;}
</style>
<g>
	<polygon class="st0" points="9.4,78 9.4,87 27.4,87 69.4,87 87.4,87 87.4,78 96.4,78 96.4,18 87.4,18 87.4,9 69.4,9 27.4,9 9.4,9 
		9.4,18 0.4,18 0.4,78 	"/>
	<polygon class="st1" points="9.4,96 9.4,105 27.4,105 69.4,105 87.4,105 87.4,96 96.4,96 96.4,96 96.4,87 96.4,45 96.4,36 96.4,27 
		87.4,27 87.4,18 69.4,18 27.4,18 9.4,18 9.4,27 0.4,27 0.4,45 0.4,87 0.4,96 	"/>
</g>
</svg>
