<?xml version="1.0" encoding="utf-8"?>
<!-- Generator: Adobe Illustrator 24.2.0, SVG Export Plug-In . SVG Version: 6.00 Build 0)  -->
<svg version="1.1" id="Camada_1" xmlns="http://www.w3.org/2000/svg" xmlns:xlink="http://www.w3.org/1999/xlink" x="0px" y="0px"
	 viewBox="0 0 96 105" style="enable-background:new 0 0 96 105;" xml:space="preserve">
<style type="text/css">
	.st0{fill:#C3B6D3;}
	.st1{fill:#E7DFEF;}
</style>
<g>
	<polygon class="st0" points="87,36 87,27 69,27 27,27 9,27 9,36 0,36 0,96 9,96 9,105 27,105 69,105 87,105 87,96 96,96 96,36 	"/>
	<polygon class="st1" points="87,9 87,0 69,0 27,0 9,0 9,9 0,9 0,18 0,27 0,69 0,78 0,87 9,87 9,96 27,96 69,96 87,96 87,87 96,87 
		96,69 96,27 96,9 	"/>
</g>
</svg>
