<?xml version="1.0" encoding="utf-8"?>
<!-- Generator: Adobe Illustrator 24.2.0, SVG Export Plug-In . SVG Version: 6.00 Build 0)  -->
<svg version="1.1" id="Camada_1" xmlns="http://www.w3.org/2000/svg" xmlns:xlink="http://www.w3.org/1999/xlink" x="0px" y="0px"
	 viewBox="0 0 594 701" style="enable-background:new 0 0 594 701;" xml:space="preserve">
<style type="text/css">
	.st0{fill:#FFC285;}
	.st1{fill:#C60C88;}
	.st2{fill:#A89DBA;}
	.st3{fill:#C3B6D3;}
	.st4{fill:#DD2E9B;}
</style>
<g>
	<g>
		<polygon class="st0" points="585,539 585,530 585,521 585,512 576,512 576,503 567,503 558,503 558,494 549,494 540,494 531,494 
			522,494 522,503 513,503 513,512 504,512 504,521 495,521 495,530 495,539 495,548 486,548 486,557 486,566 486,575 495,575 
			495,602 576,602 576,593 585,593 585,584 585,575 585,566 585,557 594,557 594,548 594,539 		"/>
		<polygon class="st1" points="567,602 558,602 549,602 540,602 531,602 522,602 513,602 504,602 504,593 495,593 495,584 495,575 
			486,575 486,584 477,584 477,593 477,602 477,611 477,620 468,620 468,629 472,629 472,665 468,665 468,674 468,683 468,692 
			468,701 477,701 486,701 495,701 504,701 513,701 522,701 531,701 540,701 549,701 558,701 558,692 558,683 558,674 558,665 
			567,665 567,656 567,647 567,638 567,629 576,629 576,620 576,611 576,602 		"/>
	</g>
	<polygon class="st0" points="468,285 468,276 468,267 468,258 468,249 468,240 459,240 459,231 459,222 459,213 450,213 450,204 
		450,195 441,195 441,186 441,177 432,177 432,168 423,168 423,159 414,159 414,150 405,150 405,141 396,141 396,132 387,132 
		378,132 378,123 371,123 369,123 360,123 351,123 342,123 333,123 324,123 315,123 306,123 297,123 288,123 279,123 270,123 
		261,123 252,123 243,123 234,123 225,123 216,123 207,123 198,123 189,123 180,123 171,123 162,123 117,123 117,132 108,132 
		99,132 99,141 90,141 90,150 81,150 81,159 72,159 72,168 63,168 63,177 54,177 54,186 54,195 45,195 45,204 45,213 36,213 36,222 
		36,231 36,240 27,240 27,249 27,258 27,267 27,276 27,285 18,285 18,294 18,303 18,312 18,321 18,330 18,339 18,348 18,357 18,366 
		27,366 27,375 27,384 27,393 36,393 36,402 36,411 36,420 45,420 45,429 45,438 53,438 53,447 62,447 62,456 71,456 71,465 80,465 
		80,474 89,474 89,483 98,483 98,492 107,492 107,501 116,501 116,510 125,510 134,510 134,519 143,519 145,519 148,519 152,519 
		154,519 161,519 163,519 170,519 172,519 179,519 181,519 188,519 190,519 197,519 199,519 206,519 208,519 215,519 217,519 
		224,519 226,519 233,519 235,519 242,519 244,519 251,519 253,519 260,519 262,519 269,519 271,519 278,519 280,519 287,519 
		289,519 296,519 298,519 305,519 307,519 314,519 316,519 323,519 325,519 332,519 334,519 341,519 343,519 350,519 352,519 
		361,519 361,510 370,510 379,510 379,501 388,501 388,492 397,492 397,483 406,483 406,474 415,474 415,465 424,465 424,456 
		433,456 433,447 442,447 442,438 450,438 450,429 450,420 459,420 459,411 459,402 459,393 468,393 468,384 468,375 468,366 
		477,366 477,357 477,348 477,339 477,330 477,321 477,312 477,303 477,294 477,285 	"/>
	<polygon class="st2" points="468,295 468,286 468,277 468,268 468,259 468,250 459,250 459,241 459,232 459,223 450,223 450,214 
		450,205 441,205 441,196 441,187 432,187 432,178 423,178 423,169 414,169 414,160 405,160 405,151 396,151 396,142 387,142 
		378,142 378,133 371,133 369,133 360,133 351,133 342,133 333,133 324,133 315,133 306,133 297,133 288,133 279,133 270,133 
		261,133 252,133 243,133 234,133 225,133 216,133 207,133 198,133 189,133 180,133 171,133 162,133 117,133 117,142 108,142 
		99,142 99,151 90,151 90,160 81,160 81,169 72,169 72,178 63,178 63,187 54,187 54,196 54,205 45,205 45,214 45,223 36,223 36,232 
		36,241 36,250 27,250 27,259 27,268 27,277 27,286 27,295 18,295 18,304 18,313 18,322 18,331 18,340 18,349 18,358 18,367 18,376 
		27,376 27,385 27,394 27,403 36,403 36,412 36,421 36,430 45,430 45,439 54,439 54,448 63,448 63,457 72,457 81,457 90,457 90,448 
		99,448 99,439 108,439 108,430 117,430 117,439 126,439 126,448 135,448 135,457 144,457 153,457 162,457 162,448 171,448 171,439 
		180,439 180,430 189,430 189,439 198,439 198,448 207,448 207,457 216,457 225,457 234,457 234,448 243,448 243,439 252,439 
		252,430 261,430 261,439 270,439 270,448 279,448 279,457 288,457 297,457 306,457 306,448 315,448 315,439 324,439 324,430 
		333,430 333,439 342,439 342,448 351,448 351,457 360,457 369,457 378,457 378,448 387,448 387,439 396,439 396,430 405,430 
		405,439 414,439 414,448 423,448 424,448 424,457 433,457 442,457 442,448 450,448 450,439 450,430 459,430 459,421 459,412 
		459,403 468,403 468,394 468,385 468,376 477,376 477,367 477,358 477,349 477,340 477,331 477,322 477,313 477,304 477,295 	"/>
	<polygon class="st3" points="468,285 468,276 468,267 468,258 468,249 468,240 459,240 459,231 459,222 459,213 450,213 450,204 
		450,195 441,195 441,186 441,177 432,177 432,168 423,168 423,159 414,159 414,150 405,150 405,141 396,141 396,132 387,132 
		378,132 378,123 371,123 369,123 360,123 351,123 342,123 333,123 324,123 315,123 306,123 297,123 288,123 279,123 270,123 
		261,123 252,123 243,123 234,123 225,123 216,123 207,123 198,123 189,123 180,123 171,123 162,123 117,123 117,132 108,132 
		99,132 99,141 90,141 90,150 81,150 81,159 72,159 72,168 63,168 63,177 54,177 54,186 54,195 45,195 45,204 45,213 36,213 36,222 
		36,231 36,240 27,240 27,249 27,258 27,267 27,276 27,285 18,285 18,294 18,303 18,312 18,321 18,330 18,339 18,348 18,357 18,366 
		27,366 27,375 27,384 27,393 36,393 36,402 36,411 36,420 45,420 45,429 54,429 54,438 63,438 63,447 72,447 81,447 90,447 90,438 
		99,438 99,429 108,429 108,420 117,420 117,429 126,429 126,438 135,438 135,447 144,447 153,447 162,447 162,438 171,438 171,429 
		180,429 180,420 189,420 189,429 198,429 198,438 207,438 207,447 216,447 225,447 234,447 234,438 243,438 243,429 252,429 
		252,420 261,420 261,429 270,429 270,438 279,438 279,447 288,447 297,447 306,447 306,438 315,438 315,429 324,429 324,420 
		333,420 333,429 342,429 342,438 351,438 351,447 360,447 369,447 378,447 378,438 387,438 387,429 396,429 396,420 405,420 
		405,429 414,429 414,438 423,438 424,438 424,447 433,447 442,447 442,438 450,438 450,429 450,420 459,420 459,411 459,402 
		459,393 468,393 468,384 468,375 468,366 477,366 477,357 477,348 477,339 477,330 477,321 477,312 477,303 477,294 477,285 	"/>
	<g>
		<polygon class="st0" points="486,357 486,348 477,348 477,357 477,366 468,366 468,375 468,384 468,393 459,393 459,402 459,411 
			468,411 477,411 477,402 486,402 486,393 495,393 495,384 495,375 495,366 495,357 		"/>
		<polygon class="st0" points="27,384 27,375 27,366 18,366 18,357 18,348 9,348 9,357 0,357 0,366 0,375 0,384 0,393 9,393 9,402 
			18,402 18,411 27,411 36,411 36,402 36,393 27,393 		"/>
	</g>
	<g>
		<polygon class="st2" points="378,66 341,66 341,63 333,63 332,63 332,54 323,54 323,45 314,45 305,45 305,36 296,36 287,36 
			333,27 324,27 315,27 306,27 306,18 297,18 288,18 279,18 270,18 261,18 252,18 243,18 234,18 225,18 225,27 216,27 207,27 
			198,27 198,36 189,36 180,36 180,45 171,45 162,45 162,54 153,54 153,63 144,63 144,72 135,72 135,81 126,81 126,141 135,141 
			135,150 144,150 144,159 153,159 153,168 162,168 162,177 171,177 180,177 180,186 189,186 198,186 198,195 207,195 216,195 
			225,195 225,204 234,204 243,204 252,204 261,204 270,204 279,204 288,204 297,204 306,204 306,195 315,195 324,195 333,195 
			333,186 342,186 351,186 351,177 360,177 369,177 369,168 378,168 378,159 379,159 387,159 387,150 396,150 396,141 396,132 
			378,132 		"/>
		<polygon class="st3" points="369,63 369,54 360,54 360,45 352,45 351,45 351,36 342,36 342,27 333,27 324,27 324,18 315,18 
			306,18 306,9 297,9 288,9 279,9 279,0 270,0 261,0 252,0 243,0 234,0 225,0 216,0 216,9 207,9 198,9 189,9 189,18 180,18 171,18 
			171,27 162,27 153,27 153,36 144,36 144,45 135,45 135,54 126,54 126,63 117,63 117,123 126,123 126,132 135,132 135,141 144,141 
			144,150 153,150 153,159 162,159 171,159 171,168 180,168 189,168 189,177 198,177 207,177 216,177 216,186 225,186 234,186 
			243,186 252,186 261,186 270,186 279,186 279,177 288,177 297,177 306,177 306,168 315,168 324,168 324,159 333,159 342,159 
			342,150 351,150 351,141 352,141 360,141 360,132 369,132 369,123 378,123 378,63 		"/>
	</g>
	<polygon class="st4" points="512.9,682.6 512.9,673.6 512.9,664.5 503.9,664.5 503.9,655.5 494.8,655.5 494.8,646.4 485.8,646.4 
		485.8,637.4 476.7,637.4 476.7,628.3 467.9,628.3 467.9,620 468,620 468,611 459,611 459,619.2 458.9,619.2 458.9,611 459,611 
		459,602 451,602 451,601.6 451,593 441.9,593 441.9,591.6 441.9,582.5 432.9,582.5 432.9,573.5 423.8,573.5 423.8,564.4 
		414.8,564.4 414.8,555.4 405.7,555.4 405.7,546.3 396.6,546.3 396.6,537.2 387.6,537.2 378.5,537.2 378.5,528.2 369.5,528.2 
		360.4,528.2 360.4,519.1 351.4,519.1 342.3,519.1 333.2,519.1 333.2,510.1 324.2,510.1 315.1,510.1 306.1,510.1 297,510.1 
		287.9,510.1 287.9,501 278.9,501 269.8,501 260.8,501 251.7,501 242.6,501 233.6,501 224.5,501 215.5,501 206.4,501 206.4,510.1 
		197.4,510.1 188.3,510.1 179.2,510.1 179.2,519.1 170.2,519.1 161.1,519.1 152.1,519.1 152.1,528.2 143,528.2 133.9,528.2 
		133.9,536.2 124.9,536.2 124.9,545.3 115.8,545.3 115.8,554.3 106.8,554.3 106.8,563.4 97.7,563.4 97.7,572.2 95.9,572.2 
		95.9,572.5 88.6,572.5 88.6,581.3 86.8,581.3 86.8,581.5 79.6,581.5 79.6,590.3 77.8,590.3 77.8,590.6 70.5,590.6 70.5,599.4 
		68.7,599.4 68.7,599.6 61.5,599.6 61.5,608.5 59.6,608.5 59.6,617.5 50.6,617.5 50.6,626.6 41.5,626.6 41.5,635.6 32.5,635.6 
		32.5,644.7 32.5,653.8 23.4,653.8 23.4,662 14,662 14,701 23.4,701 24,701 522,701 522,682.6 	"/>
</g>
</svg>
