<?xml version="1.0" encoding="utf-8"?>
<!-- Generator: Adobe Illustrator 24.2.0, SVG Export Plug-In . SVG Version: 6.00 Build 0)  -->
<svg version="1.1" id="Camada_1" xmlns="http://www.w3.org/2000/svg" xmlns:xlink="http://www.w3.org/1999/xlink" x="0px" y="0px"
	 viewBox="0 0 442 442" style="enable-background:new 0 0 442 442;" xml:space="preserve">
<style type="text/css">
	.st0{fill:#633585;}
	.st1{fill:#9B6DBF;}
	.st2{fill:#FFFFFF;}
</style>
<g>
	<circle class="st0" cx="221" cy="221" r="221"/>
	<circle class="st1" cx="221" cy="221" r="211.9"/>
	<g>
		<path class="st2" d="M150.1,106.2l0,3.8l-20.5,0.1l0.4,67.4l-4.6,0l-0.4-67.4l-20.4,0.1l0-3.8L150.1,106.2z"/>
		<path class="st2" d="M162.6,109.9l0.2,29.9l28.8-0.2l0,3.6l-28.8,0.2l0.2,30l31.8-0.2l0,3.8l-36.4,0.2l-0.4-71.2l36.4-0.2l0,3.8
			L162.6,109.9z"/>
		<path class="st2" d="M257.2,110.9c5.5,4,9.5,9.5,12,16.4l-4.7,0c-2-5.5-5.5-9.9-10.3-13.2c-4.8-3.3-10.7-4.9-17.8-4.9
			c-5.4,0-10.2,1.4-14.6,4c-4.3,2.6-7.7,6.4-10.2,11.2s-3.7,10.6-3.7,17.1c0,6.5,1.3,12.1,3.9,16.9c2.6,4.8,6,8.5,10.4,11.1
			c4.4,2.6,9.2,3.8,14.6,3.8c7.1,0,13-1.7,17.7-5.1c4.8-3.4,8.1-7.8,10.1-13.2l4.7,0c-2.4,7-6.3,12.5-11.8,16.5
			c-5.5,4-12.4,6-20.8,6.1c-6.5,0-12.2-1.5-17.3-4.5c-5.1-3-9.1-7.3-11.9-12.8c-2.9-5.5-4.3-11.8-4.3-18.8c0-7,1.3-13.3,4.1-18.8
			c2.8-5.5,6.7-9.9,11.8-13c5.1-3.1,10.8-4.7,17.3-4.7C244.7,104.9,251.6,106.9,257.2,110.9z"/>
		<path class="st2" d="M331.5,105.2l0.4,71.2l-4.6,0l-0.2-34.6l-41.4,0.2l0.2,34.6l-4.5,0l-0.4-71.2l4.5,0l0.2,32.7l41.4-0.2
			l-0.2-32.7L331.5,105.2z"/>
		<path class="st2" d="M49.4,256.1l23.9-0.1l0.1,10.9l-38.2,0.2l-0.4-71.3l14.2-0.1L49.4,256.1z"/>
		<path class="st2" d="M93.7,195.5l0.4,71.3l-14.2,0.1l-0.4-71.3L93.7,195.5z"/>
		<path class="st2" d="M155,235.8c2.6,3.2,3.9,6.9,3.9,11.2c0,6-1.9,10.7-5.9,14.2c-4,3.5-9.8,5.3-17.4,5.3l-30.6,0.2l-0.4-71.3
			l30-0.2c7.2,0,12.8,1.5,16.6,4.7c3.9,3.1,5.8,7.6,5.9,13.3c0,4.4-1.1,8.1-3.4,10.9c-2.3,2.8-5.3,4.7-9.1,5.6
			C148.9,230.6,152.4,232.6,155,235.8z M119,225.2l12.8-0.1c3.6,0,6.3-0.8,8.1-2.4c1.8-1.6,2.8-3.9,2.7-6.8c0-3-0.9-5.2-2.8-6.9
			c-1.8-1.6-4.6-2.4-8.4-2.4l-12.6,0.1L119,225.2z M141.4,252.4c2-1.7,3-4.1,3-7.2c0-3.2-1.1-5.6-3.1-7.3s-5-2.5-8.7-2.5l-13.4,0.1
			l0.1,19.6l13.5-0.1C136.5,254.9,139.4,254.1,141.4,252.4z"/>
		<path class="st2" d="M204.2,266.2l-16.8-27.7l-6.3,0l0.1,27.8l-14.2,0.1l-0.4-71.3l27.2-0.1c8.3,0,14.6,1.9,19,6s6.6,9.3,6.6,15.9
			c0,5.4-1.4,9.9-4.4,13.6c-3,3.7-7.3,6.1-12.9,7.3l17.9,28.4L204.2,266.2z M181.1,228.7l11.7-0.1c8.1,0,12.2-3.7,12.2-10.9
			c0-3.4-1-6.1-3-8c-2-1.9-5.1-2.9-9.3-2.8l-11.7,0.1L181.1,228.7z"/>
		<path class="st2" d="M270.6,251.5l-28.6,0.2l-5,14.4l-15,0.1l25.9-70.6l16.3-0.1l26.5,70.4l-15,0.1L270.6,251.5z M266.7,240.7
			l-10.7-30l-10.3,30.2L266.7,240.7z"/>
		<path class="st2" d="M333.5,265.5l-16.8-27.7l-6.3,0l0.1,27.8l-14.2,0.1l-0.4-71.3l27.2-0.1c8.3,0,14.6,1.9,19,6s6.6,9.3,6.6,15.9
			c0,5.4-1.4,9.9-4.4,13.6c-3,3.7-7.3,6.1-12.9,7.3l17.9,28.4L333.5,265.5z M310.3,228L322,228c8.1,0,12.2-3.7,12.2-10.9
			c0-3.4-1-6.1-3-8c-2-1.9-5.1-2.9-9.3-2.8l-11.7,0.1L310.3,228z"/>
		<path class="st2" d="M413.6,193.8l-23.9,46.5l0.1,24.9l-14.3,0.1l-0.1-24.9l-24.5-46.2l16.4-0.1l15.3,31.1l15-31.3L413.6,193.8z"
			/>
	</g>
	<g>
		<g>
			<path class="st2" d="M155.4,294.3L134,328.4c-0.3,0.5-0.8,0.7-1.3,0.7h-11.5c-0.4,0-0.8-0.3-0.9-0.7l-1.4-7.2
				c-0.4-2-2.1-3.4-4.2-3.4h-0.2c-1.2,0-2.2-0.8-2.4-2l-0.3-1.5c-0.1-0.6,0.3-1.1,0.9-1.1h4.6l-0.2-1.1c-0.4-2-2.1-3.4-4.2-3.4h-4
				c-1.2,0-2.2-0.8-2.4-2l-0.3-1.5c-0.1-0.6,0.3-1.1,0.9-1.1h8.4l-0.2-1.1c-0.4-2-2.1-3.4-4.2-3.4h-6.6c-2,0-3.8-1.4-4.1-3.4
				l-0.5-2.3c-0.1-0.6,0.3-1.1,0.9-1.1h12.5l0,0h7.7c0,0,0.8,0,1.6,0.2c0,0,0,0,0,0c2.4,0.6,4.2,2.5,4.7,5l3,16.9l10.8-17.2
				c1.9-3.1,5.3-4.9,8.9-4.9h4.7C155.3,292.9,155.7,293.7,155.4,294.3z M158.3,294.2l-7.2,34c-0.1,0.6,0.3,1.1,0.9,1.1h10.3
				c0.7,0,1.4-0.5,1.5-1.2l7.2-34c0.1-0.6-0.3-1.1-0.9-1.1h-10.3C159.1,292.9,158.4,293.4,158.3,294.2z M200.6,319.7h-16.4
				l16.1-14.9c3.1-2.9,5.2-6.6,6.1-10.8l0,0c0.1-0.6-0.3-1.1-0.9-1.1h-29.9c-0.7,0-1.4,0.5-1.5,1.2l-1.5,7.1
				c-0.1,0.6,0.3,1.1,0.9,1.1h15.2l-16.1,14.9c-3.1,2.9-5.2,6.6-6.1,10.8l0,0.1c-0.1,0.6,0.3,1.1,0.9,1.1h31.1
				c0.7,0,1.4-0.5,1.5-1.2l1.5-7.2C201.6,320.2,201.2,319.7,200.6,319.7z M288.6,311.2C288.6,311.2,288.6,311.1,288.6,311.2
				c0.8-4,0.7-7.3-0.4-10.2c-1.1-2.8-3-5-5.6-6.5c-2.6-1.5-5.7-2.2-9.3-2.2c-3.8,0-7.4,0.8-10.7,2.4c-3.4,1.6-6.2,3.8-8.5,6.7
				c-2.3,2.8-3.9,6-4.6,9.6c-0.8,3.6-0.6,6.8,0.6,9.7c1.2,2.9,3.2,5.1,6,6.7c2.9,1.6,6.4,2.4,10.6,2.4c6.2,0,11.3-1.6,15.5-4.9
				c0.7-0.5,0.8-1.5,0.3-2.2l-3.4-4.6c-0.5-0.7-1.4-0.8-2.1-0.4c-1.1,0.7-2.2,1.2-3.2,1.6c-1.4,0.5-2.9,0.7-4.7,0.7
				c-2.3,0-4.1-0.5-5.5-1.5c-1.3-1-2.1-2.4-2.2-4.3h23.2C286.5,314.3,288.2,313,288.6,311.2z M271.4,301.3c2,0,3.5,0.6,4.6,1.7
				c1.1,1.1,1.6,2.6,1.5,4.6h-14.8c0.8-1.9,1.9-3.4,3.5-4.6C267.7,301.9,269.4,301.3,271.4,301.3z M305.9,297.3l0.5-2.5
				c0.2-1-0.5-1.9-1.5-1.9h-8.9c-0.7,0-1.4,0.5-1.5,1.2l-7.2,34c-0.1,0.6,0.3,1.1,0.9,1.1h10.3c0.7,0,1.4-0.5,1.5-1.2l3.3-15.4
				c0.6-3,1.9-5.3,3.7-6.8c1.8-1.5,4.1-2.2,6.9-2.2c0.4,0,0.9,0,1.5,0.1c0.8,0.1,1.5-0.5,1.6-1.2l1.7-8.1c0.2-1-0.6-2-1.6-1.9
				c-1.9,0.2-3.7,0.5-5.3,1.2C309.4,294.4,307.5,295.6,305.9,297.3z M246.9,311c-0.8,3.7-2.3,7-4.5,9.9c-2.2,2.8-4.8,5-7.8,6.6
				c-3,1.5-6.2,2.3-9.5,2.3c-4.2,0-7.3-1.3-9.3-3.8l-3.4,15.6c-0.2,0.7-0.8,1.2-1.5,1.2h-10.3c-0.6,0-1-0.5-0.9-1.1l10.1-47.5
				c0.2-0.7,0.8-1.2,1.5-1.2h8.9c1,0,1.7,0.9,1.5,1.9l-0.4,1.7c3-2.8,6.8-4.2,11.6-4.2c3.3,0,6.1,0.8,8.5,2.3c2.4,1.5,4,3.7,5,6.6
				C247.7,304,247.7,307.3,246.9,311z M233.3,304.7c-1.1-1.5-2.8-2.3-5-2.3c-2.2,0-4.2,0.8-6,2.3c-1.8,1.5-2.9,3.6-3.5,6.3
				c-0.6,2.7-0.3,4.8,0.8,6.3c1.1,1.5,2.8,2.3,5,2.3c2.2,0,4.2-0.8,6-2.3c1.8-1.5,2.9-3.6,3.5-6.3
				C234.7,308.4,234.4,306.3,233.3,304.7z M332.7,301.9h6.6c0.7,0,1.4-0.5,1.5-1.2l1.3-5.9c0.2-1-0.5-1.9-1.5-1.9h-6l1.7-8
				c0.1-0.6-0.3-1.1-0.9-1.1h-10.3c-0.7,0-1.4,0.5-1.5,1.2l-6.6,31c-1,4.6-0.4,8.1,1.6,10.4c2,2.3,5.4,3.5,10.2,3.5
				c1.7,0,3.4-0.2,5-0.5c1.2-0.3,2.2-0.6,3.2-1c0.6-0.3,1-1,0.9-1.7l-0.8-5.7c-0.1-1-1.1-1.6-2-1.3c-0.8,0.2-1.6,0.4-2.4,0.4
				c-1.2,0-2-0.4-2.5-1.1c-0.5-0.7-0.7-1.8-0.4-3L332.7,301.9z"/>
		</g>
	</g>
</g>
</svg>
